<svg width="13" height="8" viewBox="0 0 13 8" fill="none" xmlns="http://www.w3.org/2000/svg">
<path d="M7.34339 7.63536L12.7204 1.77303C13.355 1.08328 12.8393 3.93217e-07 11.8762 3.93217e-07H1.12212C0.90658 -0.000175869 0.69556 0.0589098 0.514325 0.170182C0.33309 0.281454 0.189323 0.440196 0.100242 0.627397C0.0111599 0.814598 -0.0194626 1.02232 0.012044 1.2257C0.0435505 1.42907 0.13585 1.61947 0.277887 1.7741L5.65494 7.63429C5.76017 7.74916 5.88995 7.84121 6.03556 7.90429C6.18117 7.96737 6.33924 8 6.49916 8C6.65909 8 6.81716 7.96737 6.96277 7.90429C7.10838 7.84121 7.23816 7.74916 7.34339 7.63429V7.63536Z" fill="black"/>
</svg>
