<svg width="7" height="3" viewBox="0 0 7 3" fill="none" xmlns="http://www.w3.org/2000/svg">
<path d="M3.87461 2.86326L6.35632 0.664886C6.6492 0.40623 6.41117 1.47456e-07 5.96668 1.47456e-07H1.00325C0.903773 -6.5951e-05 0.806379 0.0220912 0.722732 0.0638182C0.639085 0.105545 0.572731 0.165073 0.531617 0.235274C0.490502 0.305474 0.476368 0.383372 0.49091 0.459637C0.505452 0.535902 0.548051 0.607302 0.613607 0.665287L3.09532 2.86286C3.14389 2.90593 3.20379 2.94046 3.27099 2.96411C3.3382 2.98776 3.41115 3 3.48497 3C3.55878 3 3.63173 2.98776 3.69894 2.96411C3.76614 2.94046 3.82604 2.90593 3.87461 2.86286V2.86326Z" fill="#202422"/>
</svg>
