<svg width="29" height="29" viewBox="0 0 29 29" fill="none" xmlns="http://www.w3.org/2000/svg">
<path d="M21.4032 19.3561C21.0281 18.4675 20.4837 17.6604 19.8004 16.9797C19.1192 16.297 18.3122 15.7527 17.424 15.3768C17.416 15.3729 17.4081 15.3709 17.4001 15.3669C18.639 14.472 19.4444 13.0144 19.4444 11.3698C19.4444 8.64536 17.2371 6.43799 14.5127 6.43799C11.7883 6.43799 9.58088 8.64536 9.58088 11.3698C9.58088 13.0144 10.3863 14.472 11.6252 15.3689C11.6172 15.3729 11.6093 15.3748 11.6013 15.3788C10.7104 15.7547 9.91099 16.2936 9.22492 16.9816C8.54225 17.6629 7.99795 18.4699 7.62209 19.358C7.25285 20.2276 7.05371 21.1598 7.03545 22.1043C7.03492 22.1256 7.03864 22.1467 7.0464 22.1664C7.05416 22.1862 7.06579 22.2042 7.08062 22.2194C7.09544 22.2346 7.11316 22.2467 7.13273 22.2549C7.15229 22.2632 7.17331 22.2674 7.19454 22.2674H8.38771C8.47521 22.2674 8.54481 22.1978 8.5468 22.1123C8.58657 20.5771 9.20305 19.1393 10.2928 18.0495C11.4204 16.922 12.9178 16.3015 14.5127 16.3015C16.1075 16.3015 17.605 16.922 18.7325 18.0495C19.8223 19.1393 20.4387 20.5771 20.4785 22.1123C20.4805 22.1998 20.5501 22.2674 20.6376 22.2674H21.8308C21.852 22.2674 21.873 22.2632 21.8926 22.2549C21.9122 22.2467 21.9299 22.2346 21.9447 22.2194C21.9595 22.2042 21.9712 22.1862 21.9789 22.1664C21.9867 22.1467 21.9904 22.1256 21.9899 22.1043C21.97 21.1538 21.7731 20.2291 21.4032 19.3561ZM14.5127 14.7902C13.5999 14.7902 12.7408 14.4342 12.0945 13.7879C11.4482 13.1416 11.0922 12.2825 11.0922 11.3698C11.0922 10.457 11.4482 9.5979 12.0945 8.9516C12.7408 8.3053 13.5999 7.94934 14.5127 7.94934C15.4254 7.94934 16.2845 8.3053 16.9308 8.9516C17.5771 9.5979 17.9331 10.457 17.9331 11.3698C17.9331 12.2825 17.5771 13.1416 16.9308 13.7879C16.2845 14.4342 15.4254 14.7902 14.5127 14.7902Z" fill="black"/>
</svg>
